<svg width="18.000000" height="18.000000" viewBox="0 0 18 18" fill="none" xmlns="http://www.w3.org/2000/svg" xmlns:xlink="http://www.w3.org/1999/xlink">
	<desc>
			Created with Pixso.
	</desc>
	<defs/>
	<path id="Vector" d="M9 0C7.21 0 5.47 0.52 3.99 1.51C2.51 2.5 1.36 3.91 0.68 5.55C0 7.2 -0.18 9.01 0.17 10.75C0.52 12.5 1.37 14.1 2.63 15.36C3.89 16.62 5.49 17.47 7.24 17.82C8.98 18.17 10.79 17.99 12.44 17.31C14.08 16.63 15.49 15.48 16.48 14C17.47 12.52 18 10.78 18 9C17.99 6.61 17.04 4.32 15.36 2.63C13.67 0.95 11.38 0 9 0ZM13.24 5.81L9.53 9.53C9.46 9.59 9.37 9.65 9.28 9.69C9.19 9.73 9.09 9.75 9 9.75C8.9 9.75 8.8 9.73 8.71 9.69C8.62 9.65 8.53 9.59 8.46 9.53C8.4 9.46 8.34 9.37 8.3 9.28C8.26 9.19 8.25 9.09 8.25 9C8.25 8.9 8.26 8.8 8.3 8.71C8.34 8.62 8.4 8.53 8.46 8.46L12.18 4.75C12.25 4.68 12.33 4.63 12.42 4.59C12.51 4.55 12.61 4.53 12.71 4.53C12.81 4.53 12.9 4.55 12.99 4.59C13.09 4.63 13.17 4.68 13.24 4.75C13.31 4.82 13.36 4.9 13.4 5C13.44 5.09 13.46 5.18 13.46 5.28C13.46 5.38 13.44 5.48 13.4 5.57C13.36 5.66 13.31 5.74 13.24 5.81L13.24 5.81Z" fill="#000000" fill-opacity="1.000000" fill-rule="nonzero"/>
</svg>
