<svg width="107.229736" height="18.146484" viewBox="0 0 107.23 18.1465" fill="none" xmlns="http://www.w3.org/2000/svg" xmlns:xlink="http://www.w3.org/1999/xlink">
	<desc>
			Created with Pixso.
	</desc>
	<defs/>
	<path id="Foodieland." d="M3.73 2.44Q4.4 1.99 5.34 1.96L1.89 18L5.34 18L7.29 8.97L10.79 8.97L11.18 7.2L7.68 7.2L8.68 2.42Q10.62 2.88 12.04 2.88Q12.85 2.71 13.34 2.23Q13.36 2.21 13.37 2.19Q13.5 2.06 13.61 1.91Q13.91 1.49 14.06 0.94Q14.25 0.21 14.32 0Q13.44 0.28 12.16 0.28Q11.44 0.28 9.72 0.11Q8.75 0 8.18 0Q5.34 0 3.51 0.86Q1.68 1.72 0.83 3.13Q0.54 3.61 0.35 4.14Q0 5.12 0 6.24Q0 7.46 0.6 8Q0.62 8.01 0.63 8.02Q1.27 8.56 2.56 8.56Q2.56 8.51 2.39 8.17Q2.23 7.82 2.23 6.93Q2.23 4.22 3.03 3.12Q3.33 2.71 3.73 2.44ZM47.72 4.55Q48.06 4.7 48.47 4.7Q48.88 4.7 49.22 4.56Q49.55 4.42 49.83 4.15Q50.12 3.87 50.26 3.52Q50.4 3.19 50.4 2.8Q50.4 2.42 50.26 2.09Q50.12 1.74 49.83 1.45Q49.54 1.16 49.19 1.02Q48.86 0.89 48.47 0.89Q48.08 0.89 47.74 1.03Q47.41 1.17 47.13 1.45Q46.86 1.72 46.72 2.06Q46.58 2.4 46.58 2.8Q46.58 3.21 46.72 3.56Q46.86 3.88 47.13 4.15Q47.4 4.42 47.72 4.55ZM33.32 17.83Q33.96 18.14 34.75 18.14Q35.61 18.14 36.31 17.8Q36.56 17.68 36.79 17.52Q36.85 17.48 36.91 17.43Q37.72 16.83 38.3 15.93Q38.43 16.87 38.96 17.39Q39.01 17.43 39.05 17.47Q39.13 17.53 39.21 17.59Q39.79 18 40.65 18Q41.63 18 42.44 17.63Q43.53 17.15 44.33 16.03Q44.48 16.91 44.98 17.42Q45.18 17.63 45.42 17.77Q46.02 18.14 46.85 18.14Q48.21 18.14 49.6 17.22Q50.25 16.78 50.79 15.98Q51.04 16.74 51.54 17.21L51.55 17.22Q51.6 17.26 51.65 17.31Q52.63 18.14 54.31 18.14Q55.23 18.14 56.07 17.9Q58.2 17.29 59.9 15.16Q59.9 15.21 59.9 15.26Q59.9 16.7 60.61 17.42Q60.81 17.63 61.04 17.77Q61.64 18.14 62.47 18.14Q63.83 18.14 65.22 17.22Q65.87 16.78 66.41 15.99Q66.64 16.73 67.1 17.2Q67.48 17.6 67.95 17.83Q68.59 18.14 69.38 18.14Q70.31 18.14 71.04 17.76Q71.23 17.66 71.4 17.53Q72.26 16.92 72.96 15.93Q73.07 16.99 73.66 17.56Q73.67 17.57 73.68 17.58Q73.78 17.67 73.89 17.74Q74.46 18.14 75.3 18.14Q75.34 18.14 75.38 18.14Q76.66 18.12 77.94 17.22Q78.21 17.02 78.47 16.75L78.21 18L81.67 18L83.3 10.29Q83.59 9.31 84.07 8.7Q84.44 8.22 84.9 8.11Q85.03 8.08 85.17 8.08Q85.46 8.08 85.65 8.22Q86.04 8.49 86.04 9.31Q86.04 9.81 85.87 10.63Q85.7 11.44 85.51 12.28Q85.46 12.45 85.32 13.06Q85.19 13.65 85.07 14.29Q84.95 14.92 84.95 15.43Q84.95 16.22 85.28 16.85Q85.43 17.12 85.64 17.36Q85.68 17.41 85.72 17.45Q86.41 18.14 87.79 18.14Q87.95 18.14 88.12 18.13Q89.19 18.02 90.2 17.24Q90.72 16.84 91.18 16.08Q91.41 16.76 91.84 17.2Q92.23 17.6 92.7 17.83Q93.34 18.14 94.13 18.14Q94.6 18.14 95.04 18.03Q96.44 17.66 97.53 16.15Q97.73 17.08 98.31 17.57Q98.35 17.61 98.4 17.65Q98.49 17.72 98.59 17.77Q99.19 18.14 100.03 18.14Q100.63 18.14 101.14 17.92Q101.5 17.77 101.81 17.5Q101.96 17.38 102.08 17.24Q102.59 16.64 102.67 15.67Q102.33 15.81 101.9 15.81Q101.4 15.81 101.15 15.56Q100.92 15.32 100.92 14.85Q100.92 14.51 101.01 14.16L103.77 1.2L100.22 1.68L99.04 7.2L99.04 7.1Q99.04 6.86 98.95 6.66Q98.83 6.4 98.56 6.21Q98.08 5.88 97.1 5.88Q96.15 5.88 95.33 6.2Q94.47 6.54 93.75 7.23Q93.48 7.49 93.23 7.77Q92.21 8.96 91.63 10.54Q90.93 12.5 90.93 14.27Q90.93 14.34 90.93 14.4Q90.66 14.96 90.38 15.29Q90.2 15.5 89.98 15.63Q89.65 15.81 89.22 15.81Q88.7 15.81 88.49 15.55Q88.48 15.55 88.48 15.55Q88.27 15.28 88.27 14.8Q88.27 14.4 88.42 13.69Q88.58 12.98 88.77 12.24Q89.08 11.01 89.25 10.16Q89.42 9.31 89.42 8.61Q89.42 7.32 88.77 6.65Q88.73 6.61 88.7 6.58Q88.6 6.48 88.49 6.4Q87.81 5.9 86.76 5.9Q86.22 5.9 85.72 6.05Q84.74 6.35 83.94 7.24L84.21 6L80.76 6L79.12 13.7L79.12 13.7Q78.83 14.71 78.34 15.33Q77.99 15.78 77.54 15.91Q77.37 15.96 77.18 15.96Q76.71 15.96 76.47 15.72Q76.2 15.46 76.2 14.92Q76.2 14.51 76.29 14.16L78.02 6L74.56 6L74.3 7.27L74.3 7.1Q74.3 6.86 74.21 6.66Q74.09 6.4 73.82 6.21Q73.34 5.88 72.35 5.88Q71.4 5.88 70.58 6.2Q69.73 6.54 69.01 7.23Q68.74 7.49 68.49 7.77Q67.46 8.96 66.89 10.54Q66.19 12.5 66.19 14.27Q66.19 14.38 66.19 14.48Q65.96 14.9 65.63 15.22Q65.15 15.69 64.61 15.79Q64.48 15.81 64.34 15.81Q63.81 15.81 63.58 15.61Q63.35 15.41 63.35 14.92Q63.35 14.51 63.45 14.16L66.21 1.2L62.66 1.68L60.09 13.7L60.09 13.7Q58.98 14.93 58.06 15.53Q58.04 15.54 58.01 15.56Q57.11 16.13 55.84 16.13Q54.93 16.13 54.52 15.7Q54.11 15.28 54.11 14.1Q54.11 13.86 54.16 13.15Q54.9 13.1 55.59 12.9Q56.25 12.7 56.87 12.37Q57.84 11.85 58.51 11.08Q58.73 10.83 58.91 10.56Q59.33 9.95 59.52 9.27Q59.68 8.7 59.68 8.08Q59.68 7.08 59.19 6.52Q58.54 5.78 57.04 5.78Q55.57 5.78 54.44 6.4Q53.83 6.73 53.32 7.23Q52.69 7.86 52.22 8.58Q51.58 9.54 51.21 10.68Q50.56 12.67 50.56 14.32Q50.56 14.4 50.57 14.48Q50.34 14.9 50.01 15.22Q49.53 15.69 48.98 15.79Q48.85 15.81 48.71 15.81Q48.19 15.81 47.96 15.61Q47.73 15.41 47.73 14.92Q47.73 14.51 47.82 14.16L49.55 6L46.1 6L44.47 13.7L44.46 13.7Q44.18 14.66 43.68 15.24Q43.35 15.62 42.94 15.75Q42.74 15.81 42.52 15.81Q42 15.81 41.77 15.61Q41.54 15.41 41.54 14.92Q41.54 14.51 41.63 14.16L44.39 1.2L40.84 1.68L39.66 7.2L39.66 7.1Q39.66 6.86 39.58 6.66Q39.46 6.4 39.18 6.21Q38.7 5.88 37.72 5.88Q36.77 5.88 35.95 6.2Q35.09 6.54 34.37 7.23Q34.1 7.49 33.86 7.77Q33.3 8.42 32.87 9.19Q32.8 9.22 32.73 9.25Q31.7 9.67 30.9 9.67Q30.72 9.67 30.64 9.65L30.64 9.62Q30.64 7.28 29.5 6.36Q28.77 5.78 27.57 5.78Q26.12 5.78 24.99 6.38Q24.36 6.71 23.83 7.23Q23.16 7.88 22.65 8.65Q22.48 8.91 22.32 9.19Q22.26 9.22 22.19 9.25Q21.16 9.67 20.37 9.67Q20.18 9.67 20.1 9.65L20.1 9.62Q20.1 7.28 18.96 6.36Q18.23 5.78 17.03 5.78Q15.59 5.78 14.46 6.38Q13.82 6.71 13.29 7.23Q12.62 7.88 12.12 8.65Q11.5 9.58 11.13 10.68Q10.46 12.67 10.46 14.3Q10.46 16.18 11.4 17.09Q11.44 17.14 11.49 17.18Q11.53 17.22 11.58 17.25Q12.6 18.09 14.3 18.09Q14.86 18.09 15.39 17.96Q16.24 17.75 17.01 17.2Q18.26 16.31 19.05 14.68Q19.84 13.05 20.03 10.86Q20.94 10.72 21.75 10.43Q21.71 10.55 21.66 10.68Q21 12.67 21 14.3Q21 16.18 21.94 17.09Q21.98 17.14 22.03 17.18Q22.07 17.22 22.11 17.25Q23.13 18.09 24.83 18.09Q25.39 18.09 25.92 17.96Q26.78 17.75 27.55 17.2Q28.8 16.31 29.59 14.68Q30.38 13.05 30.57 10.86Q31.49 10.72 32.3 10.42Q32.28 10.48 32.26 10.54Q31.56 12.5 31.56 14.27Q31.56 16.27 32.46 17.2Q32.85 17.6 33.32 17.83ZM54.65 11.96Q54.5 11.99 54.35 12Q54.71 10.07 55.54 8.56Q56.36 7.07 57.21 7.05Q57.22 7.05 57.23 7.05Q57.4 7.05 57.52 7.12Q57.84 7.32 57.84 8.03Q57.84 8.4 57.77 8.75Q57.65 9.35 57.34 9.91Q57.05 10.43 56.65 10.85Q56.37 11.14 56.04 11.37Q55.37 11.85 54.65 11.96ZM16.41 15.27Q15.83 15.93 15.26 15.93Q14.64 15.93 14.37 15.63Q14.33 15.59 14.3 15.54Q14.03 15.14 14.03 13.99Q14.03 12.76 14.49 11.16Q14.95 9.55 15.69 8.4Q16.42 7.28 17.18 7.24Q17.21 7.24 17.23 7.24Q17.61 7.24 17.81 7.44Q17.86 7.48 17.9 7.54Q18.09 7.84 18.14 8.64Q17.88 8.74 17.71 8.93Q17.39 9.28 17.39 9.93Q17.39 10.5 17.67 10.76Q17.82 10.89 18.04 10.94Q17.85 12.33 17.42 13.47Q16.99 14.61 16.41 15.27ZM26.94 15.27Q26.37 15.93 25.8 15.93Q25.18 15.93 24.9 15.63Q24.86 15.59 24.83 15.54Q24.57 15.14 24.57 13.99Q24.57 12.76 25.03 11.16Q25.48 9.55 26.23 8.4Q26.95 7.28 27.72 7.24Q27.74 7.24 27.76 7.24Q28.15 7.24 28.35 7.44Q28.4 7.48 28.43 7.54Q28.63 7.84 28.67 8.64Q28.42 8.74 28.25 8.93Q27.93 9.28 27.93 9.93Q27.93 10.5 28.21 10.76Q28.36 10.89 28.58 10.94Q28.38 12.33 27.95 13.47Q27.52 14.61 26.94 15.27ZM37.47 15.28Q36.88 15.81 36.31 15.81Q36.02 15.81 35.78 15.7Q35.6 15.62 35.45 15.48Q35.11 15.14 35.11 13.94Q35.11 12.74 35.53 11.17Q35.97 9.59 36.74 8.48Q37.4 7.51 38.21 7.38Q38.34 7.36 38.46 7.36Q38.78 7.36 39.01 7.51Q39.32 7.71 39.45 8.2L38.28 13.7L38.28 13.82Q38.06 14.74 37.49 15.26Q37.48 15.27 37.47 15.28ZM70.97 15.81Q70.95 15.81 70.94 15.81Q70.65 15.81 70.41 15.7Q70.24 15.62 70.08 15.48Q69.74 15.14 69.74 13.94Q69.74 12.74 70.17 11.17Q70.6 9.59 71.37 8.48Q72.04 7.51 72.84 7.38Q72.97 7.36 73.1 7.36Q73.51 7.36 73.74 7.56Q73.8 7.61 73.84 7.66Q74.07 7.94 74.08 8.24Q74.08 8.25 74.08 8.27L72.93 13.7Q72.72 14.68 72.12 15.25Q71.55 15.8 70.97 15.81ZM96.75 15.36Q96.21 15.81 95.68 15.81Q95.4 15.81 95.16 15.7Q94.98 15.62 94.83 15.48Q94.48 15.14 94.48 13.94Q94.48 12.74 94.91 11.17Q95.34 9.59 96.11 8.48Q96.78 7.51 97.59 7.38Q97.71 7.36 97.84 7.36Q98.16 7.36 98.38 7.51Q98.7 7.71 98.82 8.2L97.65 13.7L97.55 14.08Q97.29 14.9 96.75 15.36Z" fill="#000000" fill-opacity="1.000000" fill-rule="evenodd"/>
	<path id="Foodieland." d="M104.52 17.93Q104.88 18.09 105.31 18.09Q105.71 18.09 106.05 17.95Q106.39 17.81 106.66 17.54Q106.94 17.27 107.08 16.94Q107.23 16.6 107.23 16.2Q107.23 15.81 107.09 15.48Q106.95 15.13 106.66 14.84Q106.37 14.55 106.02 14.41Q105.69 14.27 105.31 14.27Q104.9 14.27 104.56 14.42Q104.23 14.56 103.96 14.84Q103.69 15.12 103.55 15.45Q103.41 15.79 103.41 16.2Q103.41 16.61 103.56 16.96Q103.7 17.28 103.96 17.54Q104.22 17.79 104.52 17.93Z" fill="#FF7426" fill-opacity="1.000000" fill-rule="evenodd"/>
</svg>
