<svg width="20.250000" height="18.000015" viewBox="0 0 20.25 18" fill="none" xmlns="http://www.w3.org/2000/svg" xmlns:xlink="http://www.w3.org/1999/xlink">
	<desc>
			Created with Pixso.
	</desc>
	<defs/>
	<path id="Vector" d="M14.62 1.52e-5C13.75 -0.01 12.89 0.2 12.1 0.59C11.32 0.98 10.64 1.54 10.12 2.24C9.41 1.3 8.42 0.6 7.3 0.25C6.17 -0.1 4.96 -0.09 3.84 0.28C2.72 0.66 1.75 1.37 1.06 2.33C0.37 3.29 0 4.44 0 5.62C0 12.36 9.36 17.68 9.75 17.9C9.87 17.96 9.99 18 10.12 18C10.25 18 10.37 17.96 10.49 17.9C12.21 16.89 13.82 15.71 15.31 14.38C18.58 11.43 20.25 8.49 20.25 5.62C20.24 4.13 19.65 2.7 18.6 1.64C17.54 0.59 16.11 0 14.62 1.52e-5Z" fill="#DBE2E5" fill-opacity="1.000000" fill-rule="nonzero"/>
</svg>
