<svg width="19.500000" height="19.500000" viewBox="0 0 19.5 19.5" fill="none" xmlns="http://www.w3.org/2000/svg" xmlns:xlink="http://www.w3.org/1999/xlink">
	<desc>
			Created with Pixso.
	</desc>
	<defs/>
	<path id="Vector" d="M9.75 0C7.82 0 5.93 0.57 4.33 1.64C2.72 2.71 1.48 4.23 0.74 6.01C0 7.8 -0.19 9.76 0.18 11.65C0.56 13.54 1.49 15.28 2.85 16.64C4.21 18 5.95 18.93 7.84 19.31C9.73 19.68 11.69 19.49 13.48 18.75C15.26 18.01 16.78 16.77 17.85 15.16C18.92 13.56 19.5 11.67 19.5 9.75C19.49 7.16 18.46 4.68 16.64 2.85C14.81 1.03 12.33 0 9.75 0ZM13.16 10.37L8.66 13.37C8.55 13.44 8.42 13.49 8.28 13.49C8.15 13.5 8.01 13.47 7.89 13.41C7.77 13.34 7.67 13.25 7.6 13.13C7.53 13.01 7.49 12.88 7.5 12.75L7.5 6.75C7.49 6.61 7.53 6.48 7.6 6.36C7.67 6.24 7.77 6.15 7.89 6.08C8.01 6.02 8.15 5.99 8.28 6C8.42 6 8.55 6.05 8.66 6.12L13.16 9.12C13.26 9.19 13.35 9.28 13.41 9.39C13.46 9.5 13.5 9.62 13.5 9.75C13.5 9.87 13.46 9.99 13.41 10.1C13.35 10.21 13.26 10.3 13.16 10.37Z" fill="#FFFFFF" fill-opacity="1.000000" fill-rule="nonzero"/>
</svg>
