<svg width="6.750000" height="19.500000" viewBox="0 0 6.75 19.5" fill="none" xmlns="http://www.w3.org/2000/svg" xmlns:xlink="http://www.w3.org/1999/xlink">
	<desc>
			Created with Pixso.
	</desc>
	<defs/>
	<path id="Vector" d="M6.74 0.73C6.74 0.72 6.74 0.7 6.74 0.69C6.74 0.67 6.74 0.66 6.74 0.65C6.74 0.64 6.74 0.63 6.73 0.61C6.73 0.6 6.73 0.59 6.73 0.58C6.72 0.57 6.72 0.56 6.72 0.55C6.71 0.53 6.71 0.52 6.7 0.5C6.7 0.5 6.7 0.49 6.7 0.49C6.7 0.48 6.7 0.48 6.69 0.48C6.69 0.46 6.68 0.45 6.68 0.43C6.67 0.42 6.67 0.41 6.66 0.4C6.66 0.39 6.65 0.38 6.64 0.37C6.64 0.36 6.63 0.35 6.62 0.34C6.62 0.33 6.61 0.32 6.61 0.31C6.6 0.3 6.59 0.29 6.58 0.28C6.57 0.27 6.57 0.26 6.56 0.25C6.55 0.24 6.54 0.23 6.53 0.22C6.53 0.22 6.52 0.21 6.51 0.2C6.5 0.19 6.49 0.18 6.48 0.17C6.47 0.17 6.46 0.16 6.45 0.15C6.45 0.15 6.44 0.14 6.43 0.13C6.41 0.12 6.4 0.12 6.39 0.11C6.38 0.1 6.38 0.1 6.37 0.09C6.35 0.09 6.34 0.08 6.33 0.07C6.32 0.07 6.31 0.07 6.3 0.06C6.29 0.06 6.28 0.05 6.26 0.04C6.25 0.04 6.24 0.04 6.23 0.03C6.22 0.03 6.21 0.03 6.19 0.02C6.18 0.02 6.17 0.02 6.16 0.01C6.15 0.01 6.14 0.01 6.13 0.01C6.11 0 6.1 0 6.09 0C6.08 0 6.07 0 6.06 0C6.04 0 6.03 0 6.01 0C6 0 6 0 6 0C5.99 0 5.99 0 5.98 0C5.97 0 5.95 0 5.94 0C5.92 0 5.91 0 5.9 0C5.89 0 5.88 0 5.87 0.01C5.85 0.01 5.84 0.01 5.83 0.01C5.82 0.02 5.81 0.02 5.8 0.02C5.78 0.03 5.77 0.03 5.75 0.04C5.75 0.04 5.74 0.04 5.74 0.04C5.73 0.04 5.72 0.05 5.71 0.05C5.71 0.05 5.7 0.05 5.7 0.06C3.77 0.78 2.22 3.15 1.1 7.1C0.59 8.93 0.23 10.79 0 12.67C-0.01 12.77 0 12.88 0.03 12.98C0.06 13.08 0.12 13.17 0.19 13.25C0.26 13.32 0.34 13.39 0.44 13.43C0.54 13.47 0.64 13.5 0.75 13.5L5.25 13.5L5.25 18.75C5.25 18.94 5.32 19.13 5.46 19.28C5.61 19.42 5.8 19.5 6 19.5C6.19 19.5 6.38 19.42 6.53 19.28C6.67 19.13 6.75 18.94 6.75 18.75L6.75 0.75C6.75 0.74 6.74 0.74 6.74 0.73Z" fill="#000000" fill-opacity="1.000000" fill-rule="nonzero"/>
</svg>
