<svg width="710.000000" height="710.000000" viewBox="0 0 710 710" fill="none" xmlns="http://www.w3.org/2000/svg" xmlns:xlink="http://www.w3.org/1999/xlink">
	<desc>
			Created with Pixso.
	</desc>
	<defs>
		<radialGradient gradientTransform="translate(355 355) rotate(90) scale(215.5 215.5)" cx="0.000000" cy="0.000000" r="1.000000" id="paint_radial_101_1214_0" gradientUnits="userSpaceOnUse">
			<stop stop-color="#3A795B"/>
			<stop offset="1.000000" stop-color="#3A795B" stop-opacity="0.000000"/>
		</radialGradient>
	</defs>
	<path id="Star 1" d="M355 0L352.18 319.25L299.46 4.37L346.63 320.13L245.29 17.37L341.27 321.87L193.83 38.69L336.26 324.42L146.33 67.79L331.71 327.73L103.97 103.97L327.73 331.71L67.79 146.33L324.42 336.26L38.69 193.83L321.87 341.27L17.37 245.29L320.13 346.63L4.37 299.46L319.25 352.18L0 355L319.25 357.81L4.37 410.53L320.13 363.37L17.37 464.7L321.87 368.72L38.69 516.16L324.42 373.73L67.79 563.66L327.73 378.28L103.97 606.02L331.71 382.26L146.33 642.2L336.26 385.57L193.83 671.3L341.27 388.12L245.29 692.62L346.63 389.86L299.46 705.62L352.18 390.74L355 710L357.81 390.74L410.53 705.62L363.37 389.86L464.7 692.62L368.72 388.12L516.16 671.3L373.73 385.57L563.66 642.2L378.28 382.26L606.02 606.02L382.26 378.28L642.2 563.66L385.57 373.73L671.3 516.16L388.12 368.72L692.62 464.7L389.86 363.37L705.62 410.53L390.74 357.81L710 355L390.74 352.18L705.62 299.46L389.86 346.63L692.62 245.29L388.12 341.27L671.3 193.83L385.57 336.26L642.2 146.33L382.26 331.71L606.02 103.97L378.28 327.73L563.66 67.79L373.73 324.42L516.16 38.69L368.72 321.87L464.7 17.37L363.37 320.13L410.53 4.37L357.81 319.25L355 0Z" fill="url(#paint_radial_101_1214_0)" fill-opacity="1.000000" fill-rule="evenodd"/>
</svg>
