<svg width="8.250000" height="19.500488" viewBox="0 0 8.25 19.5005" fill="none" xmlns="http://www.w3.org/2000/svg" xmlns:xlink="http://www.w3.org/1999/xlink">
	<desc>
			Created with Pixso.
	</desc>
	<defs/>
	<path id="Vector" d="M8.24 5.22C8.24 5.21 8.24 5.2 8.24 5.18C8.24 5.17 8.24 5.16 8.24 5.14C8.24 5.14 8.24 5.13 8.23 5.12L7.48 0.62C7.47 0.52 7.43 0.43 7.38 0.35C7.33 0.26 7.26 0.19 7.18 0.13C7.1 0.08 7.01 0.04 6.91 0.01C6.82 -0.01 6.72 -0.01 6.62 0.01C6.52 0.02 6.43 0.06 6.35 0.11C6.26 0.16 6.19 0.23 6.13 0.31C6.08 0.39 6.04 0.48 6.01 0.58C5.99 0.67 5.99 0.77 6.01 0.87L6.61 4.5L4.87 4.5L4.87 0.75C4.87 0.55 4.79 0.36 4.65 0.22C4.51 0.07 4.32 0 4.12 0C3.92 0 3.73 0.07 3.59 0.22C3.45 0.36 3.37 0.55 3.37 0.75L3.37 4.5L1.63 4.5L2.23 0.87C2.25 0.77 2.25 0.67 2.23 0.58C2.2 0.48 2.16 0.39 2.11 0.31C2.05 0.23 1.98 0.16 1.89 0.11C1.81 0.06 1.72 0.02 1.62 0.01C1.52 -0.01 1.42 -0.01 1.33 0.01C1.23 0.04 1.14 0.08 1.06 0.13C0.98 0.19 0.91 0.26 0.86 0.35C0.81 0.43 0.77 0.52 0.76 0.62L0.01 5.12C0 5.13 0 5.14 0 5.14C0 5.16 0 5.17 0 5.18C0 5.2 0 5.21 0 5.22C0 5.23 0 5.24 0 5.25C0 5.25 0 5.26 0 5.27C0 5.27 0 5.27 0 5.28C0 6.24 0.35 7.16 0.96 7.89C1.58 8.63 2.43 9.13 3.37 9.3L3.37 18.75C3.37 18.94 3.45 19.14 3.59 19.28C3.73 19.42 3.92 19.5 4.12 19.5C4.32 19.5 4.51 19.42 4.65 19.28C4.79 19.14 4.87 18.94 4.87 18.75L4.87 9.3C5.81 9.13 6.66 8.63 7.28 7.89C7.89 7.16 8.24 6.24 8.24 5.28C8.24 5.27 8.24 5.27 8.24 5.27C8.24 5.26 8.25 5.25 8.25 5.25C8.25 5.24 8.24 5.23 8.24 5.22Z" fill="#000000" fill-opacity="1.000000" fill-rule="nonzero"/>
</svg>
