<svg width="134.901367" height="10.828125" viewBox="0 0 134.901 10.8281" fill="none" xmlns="http://www.w3.org/2000/svg" xmlns:xlink="http://www.w3.org/1999/xlink">
	<desc>
			Created with Pixso.
	</desc>
	<defs/>
	<path id="www.foodieland.com" d="M39.03 3.02L40.68 3.02L40.68 4.21L39.03 4.21L39.03 10.66L37.54 10.66L37.54 4.21L36.36 4.21L36.36 3.02L37.54 3.02L37.54 2.13C37.54 0.7 38.6 0 39.81 0C40.41 0 40.84 0.12 41.05 0.2L40.7 1.4C40.56 1.36 40.34 1.29 40.04 1.29C39.31 1.29 39.03 1.66 39.03 2.33L39.03 3.02ZM68.1 0.96C68.1 1.44 67.67 1.84 67.16 1.84C66.64 1.84 66.22 1.44 66.22 0.96C66.22 0.47 66.64 0.07 67.16 0.07C67.67 0.07 68.1 0.47 68.1 0.96ZM63 9.47C62.73 9.95 62.18 10.81 60.79 10.81C58.93 10.81 57.6 9.32 57.6 6.85C57.6 4.38 58.95 2.92 60.8 2.92C62.22 2.92 62.73 3.79 63 4.26L63.09 4.26L63.09 0.47L64.57 0.47L64.57 10.66L63.12 10.66L63.12 9.47L63 9.47ZM77.56 0.47L79.04 0.47L79.04 10.66L77.56 10.66L77.56 0.47ZM101.6 9.47C101.33 9.95 100.78 10.81 99.39 10.81C97.54 10.81 96.2 9.32 96.2 6.85C96.2 4.38 97.56 2.92 99.4 2.92C100.83 2.92 101.33 3.79 101.6 4.26L101.69 4.26L101.69 0.47L103.18 0.47L103.18 10.66L101.72 10.66L101.72 9.47L101.6 9.47ZM48.4 6.87C48.4 9.23 46.99 10.81 44.84 10.81C42.69 10.81 41.28 9.23 41.28 6.87C41.28 4.5 42.69 2.92 44.84 2.92C46.99 2.92 48.4 4.5 48.4 6.87ZM56.55 6.87C56.55 9.23 55.15 10.81 52.99 10.81C50.84 10.81 49.43 9.23 49.43 6.87C49.43 4.5 50.84 2.92 52.99 2.92C55.15 2.92 56.55 4.5 56.55 6.87ZM76.09 8.75C75.75 9.99 74.57 10.81 72.9 10.81C70.65 10.81 69.27 9.26 69.27 6.89C69.27 4.54 70.67 2.92 72.8 2.92C74.53 2.92 76.18 4 76.18 6.76L76.18 7.29L70.75 7.29C70.79 8.76 71.65 9.58 72.92 9.58C73.77 9.58 74.41 9.21 74.68 8.49L76.09 8.75ZM85.24 9.61C84.96 10.18 84.25 10.82 82.99 10.82C81.53 10.82 80.41 10 80.41 8.5C80.41 6.76 81.89 6.39 83.33 6.22C84.7 6.06 85.26 6.07 85.26 5.53L85.26 5.49C85.26 4.63 84.77 4.12 83.81 4.12C82.81 4.12 82.25 4.64 82.04 5.19L80.64 4.87C81.13 3.48 82.41 2.92 83.79 2.92C85 2.92 86.75 3.36 86.75 5.58L86.75 10.66L85.3 10.66L85.3 9.61L85.24 9.61ZM91.72 4.21C90.68 4.21 89.94 4.9 89.94 6.12L89.94 10.66L88.45 10.66L88.45 3.02L89.88 3.02L89.88 4.26L89.97 4.26C90.33 3.45 91.08 2.92 92.22 2.92C93.79 2.92 94.82 3.91 94.82 5.8L94.82 10.66L93.34 10.66L93.34 5.98C93.34 4.87 92.73 4.21 91.72 4.21ZM115.05 8.24C114.88 9.73 113.72 10.81 111.91 10.81C109.7 10.81 108.35 9.18 108.35 6.87C108.35 4.54 109.74 2.92 111.9 2.92C113.63 2.92 114.89 3.94 115.05 5.48L113.6 5.48C113.44 4.77 112.87 4.17 111.92 4.17C110.68 4.17 109.85 5.2 109.85 6.84C109.85 8.5 110.66 9.55 111.92 9.55C112.77 9.55 113.42 9.07 113.6 8.24L115.05 8.24ZM123.14 6.87C123.14 9.23 121.73 10.81 119.58 10.81C117.43 10.81 116.02 9.23 116.02 6.87C116.02 4.5 117.43 2.92 119.58 2.92C121.73 2.92 123.14 4.5 123.14 6.87ZM126 10.66L124.52 10.66L124.52 3.02L125.95 3.02L125.95 4.26L126.04 4.26C126.36 3.42 127.11 2.92 128.12 2.92C129.14 2.92 129.84 3.43 130.17 4.26L130.25 4.26C130.62 3.45 131.44 2.92 132.54 2.92C133.92 2.92 134.9 3.79 134.9 5.54L134.9 10.66L133.41 10.66L133.41 5.68C133.41 4.64 132.76 4.2 131.98 4.2C131.01 4.2 130.45 4.87 130.45 5.79L130.45 10.66L128.97 10.66L128.97 5.58C128.97 4.75 128.39 4.2 127.57 4.2C126.72 4.2 126 4.92 126 5.95L126 10.66ZM3.75 10.66L2.24 10.66L0 3.02L1.53 3.02L3.03 8.63L3.1 8.63L4.61 3.02L6.14 3.02L7.63 8.6L7.71 8.6L9.19 3.02L10.73 3.02L8.49 10.66L6.97 10.66L5.42 5.14L5.31 5.14L3.75 10.66ZM15.02 10.66L13.51 10.66L11.26 3.02L12.8 3.02L14.3 8.63L14.37 8.63L15.87 3.02L17.41 3.02L18.9 8.6L18.97 8.6L20.46 3.02L22 3.02L19.76 10.66L18.24 10.66L16.69 5.14L16.58 5.14L15.02 10.66ZM26.29 10.66L24.78 10.66L22.53 3.02L24.07 3.02L25.57 8.63L25.64 8.63L27.14 3.02L28.68 3.02L30.17 8.6L30.24 8.6L31.73 3.02L33.27 3.02L31.03 10.66L29.51 10.66L27.96 5.14L27.84 5.14L26.29 10.66ZM67.89 10.66L66.41 10.66L66.41 3.02L67.89 3.02L67.89 10.66ZM72.81 4.15C71.6 4.15 70.82 5.09 70.76 6.17L74.73 6.17C74.72 5 73.96 4.15 72.81 4.15ZM42.78 6.87C42.78 8.33 43.44 9.56 44.85 9.56C46.24 9.56 46.9 8.33 46.9 6.87C46.9 5.41 46.24 4.16 44.85 4.16C43.44 4.16 42.78 5.41 42.78 6.87ZM50.93 6.87C50.93 8.33 51.59 9.56 53 9.56C54.4 9.56 55.05 8.33 55.05 6.87C55.05 5.41 54.4 4.16 53 4.16C51.59 4.16 50.93 5.41 50.93 6.87ZM117.52 6.87C117.52 8.33 118.18 9.56 119.59 9.56C120.99 9.56 121.64 8.33 121.64 6.87C121.64 5.41 120.99 4.16 119.59 4.16C118.18 4.16 117.52 5.41 117.52 6.87ZM59.1 6.84C59.1 8.37 59.79 9.54 61.12 9.54C62.4 9.54 63.11 8.44 63.11 6.84C63.11 5.24 62.41 4.18 61.12 4.18C59.77 4.18 59.1 5.32 59.1 6.84ZM97.7 6.84C97.7 8.37 98.39 9.54 99.72 9.54C101 9.54 101.71 8.44 101.71 6.84C101.71 5.24 101.02 4.18 99.72 4.18C98.38 4.18 97.7 5.32 97.7 6.84ZM81.86 8.52C81.86 9.25 82.47 9.63 83.31 9.63C84.54 9.63 85.27 8.81 85.27 7.9L85.27 6.92C85.05 7.13 83.91 7.26 83.43 7.32C82.57 7.44 81.86 7.72 81.86 8.52ZM35.33 9.76C35.33 10.31 34.88 10.75 34.34 10.75C33.79 10.75 33.35 10.31 33.35 9.76C33.35 9.21 33.79 8.77 34.34 8.77C34.88 8.77 35.33 9.21 35.33 9.76ZM106.99 9.76C106.99 10.31 106.53 10.75 105.99 10.75C105.45 10.75 105 10.31 105 9.76C105 9.21 105.45 8.77 105.99 8.77C106.53 8.77 106.99 9.21 106.99 9.76Z" fill="#FFFFFF" fill-opacity="0.600000" fill-rule="evenodd"/>
</svg>
